<?xml version="1.0" encoding="utf-8"?>
<!-- Generator: Adobe Illustrator 25.4.1, SVG Export Plug-In . SVG Version: 6.00 Build 0)  -->
<svg version="1.1" id="Layer_1" xmlns="http://www.w3.org/2000/svg" xmlns:xlink="http://www.w3.org/1999/xlink" x="0px" y="0px"
	 viewBox="0 0 20 20" style="enable-background:new 0 0 20 20;" xml:space="preserve" fill="#d52b1e" width="70px" height="70px">
<style type="text/css">
	.st0{fill-rule:evenodd;clip-rule:evenodd;fill:#d52b1e;}
</style>
<path class="st0" d="M17.5,3.9c0.6,0,1.1,0.5,1.1,1.1l0,0v10c0,0.6-0.5,1.1-1.1,1.1l0,0h-15c-0.6,0-1.1-0.5-1.1-1.1l0,0V5
	c0-0.6,0.5-1.1,1.1-1.1l0,0H17.5z M17.7,8.1H2.3l0,6.9c0,0.1,0,0.1,0.1,0.1l0,0h15c0.1,0,0.2-0.1,0.2-0.2l0,0V8.1z M15.6,12.7
	c0.3,0,0.5,0.2,0.5,0.5c0,0.3-0.2,0.5-0.5,0.5l0,0h-2.5c-0.3,0-0.5-0.2-0.5-0.5c0-0.3,0.2-0.5,0.5-0.5L15.6,12.7z M10.6,12.7
	c0.3,0,0.5,0.2,0.5,0.5c0,0.3-0.2,0.5-0.5,0.5l0,0H9.4c-0.3,0-0.5-0.2-0.5-0.5c0-0.3,0.2-0.5,0.5-0.5L10.6,12.7z M17.5,4.8h-15
	C2.4,4.8,2.3,4.9,2.3,5l0,0l0,2.1h15.3V5C17.7,4.9,17.6,4.9,17.5,4.8L17.5,4.8z"/>
</svg>
