<?xml version="1.0" encoding="utf-8"?>
<!-- Generator: Adobe Illustrator 25.4.1, SVG Export Plug-In . SVG Version: 6.00 Build 0)  -->
<svg version="1.1" id="Layer_1" xmlns="http://www.w3.org/2000/svg" xmlns:xlink="http://www.w3.org/1999/xlink" x="0px" y="0px"
	 viewBox="0 0 20 20" style="enable-background:new 0 0 20 20;" xml:space="preserve" fill="#d52b1e" width="70px" height="70px">
<style type="text/css">
	.st0{fill-rule:evenodd;clip-rule:evenodd;fill:#d52b1e;}
</style>
<path class="st0" d="M10.5,1.5l8,8l-9,9h-8v-8L10.5,1.5z M10.5,2.7l-8.2,8.2v6.8h6.8l8.2-8.2L10.5,2.7z M6.4,11.9
	c0.9,0,1.6,0.7,1.6,1.6c0,0.9-0.7,1.6-1.6,1.6c-0.9,0-1.6-0.7-1.6-1.6C4.8,12.7,5.5,11.9,6.4,11.9z M6.4,12.8
	c-0.5,0-0.8,0.4-0.8,0.8c0,0.5,0.4,0.8,0.8,0.8c0.5,0,0.8-0.4,0.8-0.8C7.2,13.1,6.9,12.8,6.4,12.8z"/>
</svg>
