<?xml version="1.0" encoding="utf-8"?>
<!-- Generator: Adobe Illustrator 25.4.1, SVG Export Plug-In . SVG Version: 6.00 Build 0)  -->
<svg version="1.1" id="Layer_1" xmlns="http://www.w3.org/2000/svg" xmlns:xlink="http://www.w3.org/1999/xlink" x="0px" y="0px"
	 viewBox="0 0 20 20" style="enable-background:new 0 0 20 20;" xml:space="preserve" fill="#d52b1e" width="70px" height="70px">
<style type="text/css">
	.st0{fill:#D52B1E;}
</style>
<path class="st0" d="M8,17c-3.2,0-4.6-1.4-4.6-4.6V9.5c0,0,0-0.1,0-0.1C3.1,8.9,2.9,8.2,3,7.6l0.2-1.8C3.5,3.8,4.4,3,6.3,3h2l0,0
	c0,0,0,0,0,0h5c1.9,0,2.8,0.8,3.1,2.8l0.2,1.8c0.1,0.6-0.1,1.3-0.4,1.8c0,0,0,0.1,0,0.1v2.9c0,3.2-1.4,4.6-4.6,4.6H8z M9.8,13.7
	c-0.8,0-1.1,0.3-1.1,1.1V16h2.3v-1.1C10.9,14.1,10.6,13.7,9.8,13.7z M7.8,9.4L7.8,9.4c-0.5,0.6-1.3,1.1-2.1,1.1
	c-0.4,0-0.9-0.1-1.2-0.3l0,2.2c0,2.5,0.9,3.5,3.2,3.6l0-1.1c0-1.4,0.7-2.1,2.1-2.1s2.1,0.7,2.1,2.1l0,1.1c2.4-0.1,3.2-1.1,3.2-3.6
	l0-2.2c-0.4,0.2-0.8,0.3-1.3,0.3c-0.8,0-1.6-0.4-2.1-1c-0.1,0.1-0.1,0.2-0.2,0.2c-0.5,0.5-1.1,0.8-1.8,0.8S8.4,10.2,8,9.7
	C7.9,9.6,7.8,9.5,7.8,9.4z M13.3,4l-1.4,0l0.4,3.8c0,0.1,0,0.2,0,0.3l0-0.1c0.1,0.8,0.8,1.5,1.7,1.5c0.5,0,0.9-0.2,1.3-0.5
	c0.3-0.3,0.5-0.8,0.4-1.3l-0.2-1.8C15.2,4.4,14.7,4,13.3,4z M7.7,4H6.3C4.8,4,4.4,4.4,4.2,5.9L4,7.7C3.9,8.2,4.1,8.6,4.4,9
	s0.8,0.5,1.3,0.5c0.8,0,1.6-0.7,1.7-1.5L7.7,4z M10.9,4L8.7,4L8.3,7.9c0,0.4,0.1,0.8,0.4,1.1c0.6,0.6,1.7,0.6,2.2,0
	c0.2-0.3,0.4-0.6,0.4-0.9L10.9,4z"/>
</svg>
