<?xml version="1.0" encoding="utf-8"?>
<!-- Generator: Adobe Illustrator 25.4.1, SVG Export Plug-In . SVG Version: 6.00 Build 0)  -->
<svg version="1.1" id="Layer_1" xmlns="http://www.w3.org/2000/svg" xmlns:xlink="http://www.w3.org/1999/xlink" x="0px" y="0px"
	 viewBox="0 0 20 20" style="enable-background:new 0 0 20 20;" xml:space="preserve" fill="#d52b1e" width="70px" height="70px">
<path d="M10,2c0.2,0,0.4,0.1,0.5,0.1l0,0l1,0.6C11.7,3,12,3,12.3,3l0,0l1.2-0.1c0.2,0,0.4,0,0.5,0.1c0.2,0.1,0.3,0.2,0.4,0.4l0,0
	l0.5,1.1C15,4.8,15.2,5,15.5,5.1l0,0l1.1,0.5c0.2,0.1,0.3,0.2,0.4,0.4c0.1,0.2,0.1,0.3,0.1,0.5l0,0L17,7.7C17,8,17,8.2,17.2,8.5l0,0
	l0.6,1C17.9,9.6,18,9.8,18,10c0,0.2-0.1,0.4-0.2,0.5l0,0l-0.6,1C17,11.7,17,12,17,12.3l0,0l0.1,1.2c0,0.2,0,0.4-0.1,0.5
	c-0.1,0.2-0.2,0.3-0.4,0.4l0,0l-1.1,0.5c-0.3,0.1-0.5,0.3-0.6,0.6l0,0l-0.5,1.1c-0.1,0.2-0.2,0.3-0.4,0.4c-0.2,0.1-0.3,0.1-0.5,0.1
	l0,0L12.3,17c-0.3,0-0.6,0.1-0.8,0.2l0,0l-1,0.6C10.4,17.9,10.2,18,10,18c-0.2,0-0.3-0.1-0.5-0.1l0,0l-1-0.6C8.3,17.1,8,17,7.8,17
	l0,0H7.7l-1.2,0.1c-0.2,0-0.4,0-0.5-0.1c-0.2-0.1-0.3-0.2-0.4-0.4l0,0l-0.5-1.1C5,15.2,4.7,15,4.5,14.9l0,0l-1.1-0.5
	C3.3,14.3,3.1,14.2,3,14c-0.1-0.2-0.1-0.3-0.1-0.5l0,0L3,12.3C3,12,3,11.7,2.8,11.5l0,0l-0.6-1C2.1,10.4,2,10.2,2,10
	c0-0.2,0.1-0.4,0.1-0.5l0,0l0.6-1C3,8.3,3,8,3,7.7l0,0L2.9,6.5c0-0.2,0-0.4,0.1-0.5c0.1-0.2,0.2-0.3,0.4-0.4l0,0l1.1-0.5
	C4.8,5,5,4.8,5.1,4.5l0,0l0.5-1.1C5.7,3.3,5.9,3.1,6,3C6.2,3,6.4,2.9,6.5,2.9l0,0L7.7,3C8,3,8.3,3,8.5,2.8l0,0l1-0.6
	C9.6,2.1,9.8,2,10,2z M10,2.7c0,0-0.1,0-0.1,0l0,0l-1,0.6C8.5,3.7,8.1,3.8,7.7,3.8l0,0L6.5,3.7c0,0-0.1,0-0.1,0c0,0-0.1,0-0.1,0.1
	l0,0L5.8,4.8C5.6,5.2,5.2,5.5,4.8,5.8l0,0L3.8,6.3c0,0-0.1,0-0.1,0.1c0,0,0,0.1,0,0.1l0,0l0.1,1.2c0,0.4-0.1,0.9-0.3,1.3l0,0l-0.6,1
	c0,0,0,0.1,0,0.1c0,0,0,0.1,0,0.1l0,0l0.6,1c0.2,0.4,0.4,0.8,0.3,1.2l0,0l-0.1,1.2c0,0,0,0.1,0,0.1c0,0,0,0.1,0.1,0.1l0,0l1,0.5
	c0.4,0.2,0.7,0.5,0.9,0.9l0,0l0.5,1.1c0,0,0,0.1,0.1,0.1c0,0,0.1,0,0.1,0l0,0l1.3-0.1c0.4,0,0.8,0.1,1.2,0.3l0,0l1,0.6
	c0,0,0.1,0,0.1,0c0,0,0.1,0,0.1,0l0,0l1-0.6c0.4-0.3,0.8-0.4,1.2-0.3l0,0l1.2,0.1c0.1,0,0.2,0,0.2-0.1l0,0l0.5-1.1
	c0.2-0.4,0.5-0.7,0.9-0.9l0,0l1.1-0.5c0,0,0.1,0,0.1-0.1c0,0,0-0.1,0-0.1l0,0l-0.1-1.2c0-0.4,0.1-0.9,0.3-1.3l0,0l0.6-1
	c0,0,0-0.1,0-0.1c0,0,0-0.1,0-0.1l0,0l-0.6-1c-0.2-0.4-0.4-0.8-0.3-1.2l0,0l0.1-1.2c0,0,0-0.1,0-0.1c0,0,0-0.1-0.1-0.1l0,0l-1.1-0.5
	c-0.4-0.2-0.7-0.5-0.9-0.9l0,0l-0.5-1.1c0,0,0-0.1-0.1-0.1c0,0-0.1,0-0.1,0l0,0l-1.2,0.1c-0.4,0-0.9-0.1-1.3-0.3l0,0l-1-0.6
	C10.1,2.8,10,2.7,10,2.7z M11.8,10.3c0.4,0,0.9,0.2,1.2,0.5c0.3,0.3,0.5,0.7,0.5,1.2c0,0.3-0.1,0.7-0.3,0.9
	c-0.2,0.3-0.4,0.5-0.8,0.6s-0.6,0.2-1,0.1c-0.3-0.1-0.6-0.2-0.9-0.5c-0.2-0.2-0.4-0.5-0.5-0.9c-0.1-0.3,0-0.7,0.1-1
	c0.1-0.3,0.3-0.6,0.6-0.8C11.2,10.4,11.5,10.3,11.8,10.3z M13.2,6.4c0.1,0,0.2,0,0.3,0.1c0.1,0.1,0.1,0.2,0.1,0.3
	c0,0.1,0,0.1-0.1,0.2l0,0.1L7,13.5c0,0-0.1,0.1-0.1,0.1c0,0-0.1,0-0.1,0c0,0-0.1,0-0.1,0c0,0-0.1,0-0.1-0.1c0,0-0.1-0.1-0.1-0.1
	c0,0,0-0.1,0-0.1c0,0,0-0.1,0-0.1l0-0.1l0-0.1L13,6.5C13,6.5,13.1,6.4,13.2,6.4z M11.6,10.9c-0.2,0-0.4,0.2-0.6,0.3
	c-0.2,0.2-0.3,0.4-0.3,0.6c0,0.2,0,0.4,0.1,0.7c0.1,0.2,0.2,0.4,0.4,0.5c0.2,0.1,0.4,0.2,0.6,0.2c0.3,0,0.6-0.1,0.8-0.3
	c0.2-0.2,0.3-0.5,0.3-0.8c0-0.2-0.1-0.4-0.2-0.6c-0.1-0.2-0.3-0.3-0.5-0.4C12,10.9,11.8,10.9,11.6,10.9z M8.5,6.3
	c0.3,0.1,0.6,0.2,0.9,0.5C9.6,7,9.8,7.3,9.8,7.6c0.1,0.3,0,0.7-0.1,1C9.6,8.9,9.4,9.1,9.1,9.3C8.8,9.5,8.5,9.6,8.2,9.6
	C7.7,9.6,7.3,9.4,7,9.1C6.8,9,6.7,8.8,6.6,8.6C6.6,8.4,6.5,8.2,6.5,7.9c0-0.3,0.1-0.7,0.3-0.9C7,6.7,7.2,6.5,7.5,6.4
	C7.9,6.3,8.2,6.2,8.5,6.3z M8.2,6.8c-0.3,0-0.6,0.1-0.8,0.3C7.2,7.4,7.1,7.6,7.1,7.9c0,0.2,0.1,0.4,0.2,0.6C7.4,8.8,7.6,8.9,7.8,9
	C8,9.1,8.2,9.1,8.5,9C8.7,9,8.9,8.9,9,8.7c0.2-0.2,0.3-0.4,0.3-0.6c0-0.2,0-0.5-0.1-0.7C9.2,7.3,9,7.1,8.8,7
	C8.6,6.9,8.4,6.8,8.2,6.8z"/>
</svg>
